<svg width="414" height="896" viewBox="0 0 414 896" fill="none" xmlns="http://www.w3.org/2000/svg">
<g clip-path="url(#clip0_499_1167)">
<rect width="414" height="896" rx="40" fill="#6FCF97"/>
<path d="M172.979 63.2832H175.898C175.84 64.2402 175.576 65.0898 175.107 65.832C174.645 66.5742 173.997 67.1536 173.164 67.5703C172.337 67.987 171.341 68.1953 170.176 68.1953C169.264 68.1953 168.447 68.0391 167.725 67.7266C167.002 67.4076 166.383 66.9518 165.869 66.3594C165.361 65.7669 164.974 65.0508 164.707 64.2109C164.44 63.3711 164.307 62.4303 164.307 61.3887V60.4023C164.307 59.3607 164.443 58.4199 164.717 57.5801C164.997 56.7337 165.394 56.0143 165.908 55.4219C166.429 54.8294 167.051 54.3737 167.773 54.0547C168.496 53.7357 169.303 53.5762 170.195 53.5762C171.38 53.5762 172.38 53.791 173.193 54.2207C174.014 54.6504 174.648 55.2428 175.098 55.998C175.553 56.7533 175.827 57.6126 175.918 58.5762H172.988C172.956 58.0033 172.842 57.5182 172.646 57.1211C172.451 56.7174 172.155 56.4147 171.758 56.2129C171.367 56.0046 170.846 55.9004 170.195 55.9004C169.707 55.9004 169.281 55.9915 168.916 56.1738C168.551 56.3561 168.245 56.6328 167.998 57.0039C167.751 57.375 167.565 57.8438 167.441 58.4102C167.324 58.9701 167.266 59.6276 167.266 60.3828V61.3887C167.266 62.1243 167.321 62.7721 167.432 63.332C167.542 63.8854 167.712 64.3542 167.939 64.7383C168.174 65.1159 168.473 65.4023 168.838 65.5977C169.209 65.7865 169.655 65.8809 170.176 65.8809C170.788 65.8809 171.292 65.7832 171.689 65.5879C172.087 65.3926 172.389 65.1029 172.598 64.7188C172.812 64.3346 172.939 63.8561 172.979 63.2832ZM180.391 53V68H177.578V53H180.391ZM179.99 62.3457H179.219C179.225 61.61 179.323 60.9329 179.512 60.3145C179.701 59.6895 179.971 59.1491 180.322 58.6934C180.674 58.2311 181.094 57.873 181.582 57.6191C182.077 57.3652 182.624 57.2383 183.223 57.2383C183.743 57.2383 184.215 57.3132 184.639 57.4629C185.068 57.6061 185.436 57.8405 185.742 58.166C186.055 58.485 186.296 58.9049 186.465 59.4258C186.634 59.9466 186.719 60.5781 186.719 61.3203V68H183.887V61.3008C183.887 60.832 183.818 60.4642 183.682 60.1973C183.551 59.9238 183.359 59.7318 183.105 59.6211C182.858 59.5039 182.552 59.4453 182.188 59.4453C181.784 59.4453 181.439 59.5202 181.152 59.6699C180.872 59.8197 180.648 60.028 180.479 60.2949C180.309 60.5553 180.186 60.8613 180.107 61.2129C180.029 61.5645 179.99 61.9421 179.99 62.3457ZM193.721 68.1953C192.9 68.1953 192.165 68.0651 191.514 67.8047C190.863 67.5378 190.309 67.1699 189.854 66.7012C189.404 66.2324 189.059 65.6888 188.818 65.0703C188.577 64.4453 188.457 63.7812 188.457 63.0781V62.6875C188.457 61.8867 188.571 61.1543 188.799 60.4902C189.027 59.8262 189.352 59.25 189.775 58.7617C190.205 58.2734 190.726 57.8991 191.338 57.6387C191.95 57.3717 192.64 57.2383 193.408 57.2383C194.157 57.2383 194.821 57.362 195.4 57.6094C195.98 57.8568 196.465 58.2083 196.855 58.6641C197.253 59.1198 197.552 59.6667 197.754 60.3047C197.956 60.9362 198.057 61.6393 198.057 62.4141V63.5859H189.658V61.7109H195.293V61.4961C195.293 61.1055 195.221 60.7572 195.078 60.4512C194.941 60.1387 194.733 59.8913 194.453 59.709C194.173 59.5267 193.815 59.4355 193.379 59.4355C193.008 59.4355 192.689 59.5169 192.422 59.6797C192.155 59.8424 191.937 60.0703 191.768 60.3633C191.605 60.6562 191.481 61.0013 191.396 61.3984C191.318 61.7891 191.279 62.2188 191.279 62.6875V63.0781C191.279 63.5013 191.338 63.8919 191.455 64.25C191.579 64.6081 191.751 64.9173 191.973 65.1777C192.201 65.4382 192.474 65.64 192.793 65.7832C193.118 65.9264 193.486 65.998 193.896 65.998C194.404 65.998 194.876 65.9004 195.312 65.7051C195.755 65.5033 196.136 65.2005 196.455 64.7969L197.822 66.2812C197.601 66.6003 197.298 66.9062 196.914 67.1992C196.536 67.4922 196.081 67.7331 195.547 67.9219C195.013 68.1042 194.404 68.1953 193.721 68.1953ZM204.521 68.1953C203.701 68.1953 202.965 68.0651 202.314 67.8047C201.663 67.5378 201.11 67.1699 200.654 66.7012C200.205 66.2324 199.86 65.6888 199.619 65.0703C199.378 64.4453 199.258 63.7812 199.258 63.0781V62.6875C199.258 61.8867 199.372 61.1543 199.6 60.4902C199.827 59.8262 200.153 59.25 200.576 58.7617C201.006 58.2734 201.527 57.8991 202.139 57.6387C202.751 57.3717 203.441 57.2383 204.209 57.2383C204.958 57.2383 205.622 57.362 206.201 57.6094C206.781 57.8568 207.266 58.2083 207.656 58.6641C208.053 59.1198 208.353 59.6667 208.555 60.3047C208.757 60.9362 208.857 61.6393 208.857 62.4141V63.5859H200.459V61.7109H206.094V61.4961C206.094 61.1055 206.022 60.7572 205.879 60.4512C205.742 60.1387 205.534 59.8913 205.254 59.709C204.974 59.5267 204.616 59.4355 204.18 59.4355C203.809 59.4355 203.49 59.5169 203.223 59.6797C202.956 59.8424 202.738 60.0703 202.568 60.3633C202.406 60.6562 202.282 61.0013 202.197 61.3984C202.119 61.7891 202.08 62.2188 202.08 62.6875V63.0781C202.08 63.5013 202.139 63.8919 202.256 64.25C202.38 64.6081 202.552 64.9173 202.773 65.1777C203.001 65.4382 203.275 65.64 203.594 65.7832C203.919 65.9264 204.287 65.998 204.697 65.998C205.205 65.998 205.677 65.9004 206.113 65.7051C206.556 65.5033 206.937 65.2005 207.256 64.7969L208.623 66.2812C208.402 66.6003 208.099 66.9062 207.715 67.1992C207.337 67.4922 206.882 67.7331 206.348 67.9219C205.814 68.1042 205.205 68.1953 204.521 68.1953ZM216.006 60.793V63H210.488V60.793H216.006Z" fill="white"/>
<path d="M221.162 59.6211V68H218.34V57.4336H220.986L221.162 59.6211ZM220.771 62.3457H219.99C219.99 61.61 220.078 60.9329 220.254 60.3145C220.436 59.6895 220.7 59.1491 221.045 58.6934C221.396 58.2311 221.829 57.873 222.344 57.6191C222.858 57.3652 223.454 57.2383 224.131 57.2383C224.6 57.2383 225.029 57.3099 225.42 57.4531C225.811 57.5898 226.146 57.8079 226.426 58.1074C226.712 58.4004 226.934 58.7845 227.09 59.2598C227.246 59.7285 227.324 60.2917 227.324 60.9492V68H224.512V61.2617C224.512 60.7799 224.447 60.4089 224.316 60.1484C224.186 59.888 224.001 59.7057 223.76 59.6016C223.525 59.4974 223.242 59.4453 222.91 59.4453C222.546 59.4453 222.227 59.5202 221.953 59.6699C221.686 59.8197 221.465 60.028 221.289 60.2949C221.113 60.5553 220.983 60.8613 220.898 61.2129C220.814 61.5645 220.771 61.9421 220.771 62.3457ZM227.061 62.0234L226.055 62.1504C226.055 61.4603 226.139 60.819 226.309 60.2266C226.484 59.6341 226.742 59.1133 227.08 58.6641C227.425 58.2148 227.852 57.8665 228.359 57.6191C228.867 57.3652 229.453 57.2383 230.117 57.2383C230.625 57.2383 231.087 57.3132 231.504 57.4629C231.921 57.6061 232.275 57.8372 232.568 58.1562C232.868 58.4688 233.096 58.8789 233.252 59.3867C233.415 59.8945 233.496 60.5163 233.496 61.252V68H230.674V61.252C230.674 60.7637 230.609 60.3926 230.479 60.1387C230.355 59.8783 230.173 59.6992 229.932 59.6016C229.697 59.4974 229.417 59.4453 229.092 59.4453C228.753 59.4453 228.457 59.5137 228.203 59.6504C227.949 59.7806 227.738 59.9629 227.568 60.1973C227.399 60.4316 227.272 60.7051 227.188 61.0176C227.103 61.3236 227.061 61.6589 227.061 62.0234ZM235.674 53H238.486V65.5781L238.203 68H235.674V53ZM245.176 62.6094V62.8145C245.176 63.6022 245.091 64.3249 244.922 64.9824C244.759 65.64 244.505 66.2096 244.16 66.6914C243.815 67.1667 243.385 67.5378 242.871 67.8047C242.363 68.0651 241.764 68.1953 241.074 68.1953C240.43 68.1953 239.87 68.0651 239.395 67.8047C238.926 67.5443 238.532 67.1764 238.213 66.7012C237.894 66.2259 237.637 65.6693 237.441 65.0312C237.246 64.3932 237.1 63.6966 237.002 62.9414V62.4922C237.1 61.737 237.246 61.0404 237.441 60.4023C237.637 59.7643 237.894 59.2077 238.213 58.7324C238.532 58.2572 238.926 57.8893 239.395 57.6289C239.863 57.3685 240.417 57.2383 241.055 57.2383C241.751 57.2383 242.357 57.3717 242.871 57.6387C243.392 57.8991 243.822 58.2702 244.16 58.752C244.505 59.2272 244.759 59.7936 244.922 60.4512C245.091 61.1022 245.176 61.8216 245.176 62.6094ZM242.363 62.8145V62.6094C242.363 62.1797 242.331 61.776 242.266 61.3984C242.207 61.0143 242.103 60.679 241.953 60.3926C241.803 60.0996 241.598 59.8685 241.338 59.6992C241.084 59.5299 240.755 59.4453 240.352 59.4453C239.967 59.4453 239.642 59.5104 239.375 59.6406C239.108 59.7708 238.887 59.9531 238.711 60.1875C238.542 60.4219 238.415 60.7018 238.33 61.0273C238.245 61.3464 238.193 61.6979 238.174 62.082V63.3613C238.193 63.8757 238.278 64.3314 238.428 64.7285C238.584 65.1191 238.818 65.4284 239.131 65.6562C239.45 65.8776 239.863 65.9883 240.371 65.9883C240.768 65.9883 241.097 65.9102 241.357 65.7539C241.618 65.5977 241.82 65.3763 241.963 65.0898C242.113 64.8034 242.217 64.4681 242.275 64.084C242.334 63.6934 242.363 63.2702 242.363 62.8145ZM252.627 65.6172V60.9102C252.627 60.5716 252.572 60.2819 252.461 60.041C252.35 59.7936 252.178 59.6016 251.943 59.4648C251.715 59.3281 251.419 59.2598 251.055 59.2598C250.742 59.2598 250.472 59.3151 250.244 59.4258C250.016 59.5299 249.84 59.6829 249.717 59.8848C249.593 60.0801 249.531 60.3112 249.531 60.5781H246.719C246.719 60.1289 246.823 59.7025 247.031 59.2988C247.24 58.8952 247.542 58.5404 247.939 58.2344C248.337 57.9219 248.809 57.6777 249.355 57.502C249.909 57.3262 250.527 57.2383 251.211 57.2383C252.031 57.2383 252.76 57.375 253.398 57.6484C254.036 57.9219 254.538 58.332 254.902 58.8789C255.273 59.4258 255.459 60.1094 255.459 60.9297V65.4512C255.459 66.0306 255.495 66.5059 255.566 66.877C255.638 67.2415 255.742 67.5605 255.879 67.834V68H253.037C252.9 67.7135 252.796 67.3555 252.725 66.9258C252.66 66.4896 252.627 66.0534 252.627 65.6172ZM252.998 61.5645L253.018 63.1562H251.445C251.074 63.1562 250.752 63.1986 250.479 63.2832C250.205 63.3678 249.98 63.4883 249.805 63.6445C249.629 63.7943 249.499 63.9701 249.414 64.1719C249.336 64.3737 249.297 64.5951 249.297 64.8359C249.297 65.0768 249.352 65.2949 249.463 65.4902C249.574 65.679 249.733 65.8288 249.941 65.9395C250.15 66.0436 250.394 66.0957 250.674 66.0957C251.097 66.0957 251.465 66.0111 251.777 65.8418C252.09 65.6725 252.331 65.4642 252.5 65.2168C252.676 64.9694 252.767 64.735 252.773 64.5137L253.516 65.7051C253.411 65.972 253.268 66.2487 253.086 66.5352C252.91 66.8216 252.686 67.0918 252.412 67.3457C252.139 67.5931 251.81 67.7982 251.426 67.9609C251.042 68.1172 250.586 68.1953 250.059 68.1953C249.388 68.1953 248.779 68.0618 248.232 67.7949C247.692 67.5215 247.262 67.1471 246.943 66.6719C246.631 66.1901 246.475 65.6432 246.475 65.0312C246.475 64.4779 246.579 63.9863 246.787 63.5566C246.995 63.127 247.301 62.7656 247.705 62.4727C248.115 62.1732 248.626 61.9486 249.238 61.7988C249.85 61.6426 250.56 61.5645 251.367 61.5645H252.998Z" fill="#0085CD"/>
<path d="M141.543 77.8906H142.148L144.775 84.1504L147.407 77.8906H148.008L145.005 85H144.546L141.543 77.8906ZM141.357 77.8906H141.89L141.953 81.8945V85H141.357V77.8906ZM147.671 77.8906H148.203V85H147.603V81.8945L147.671 77.8906ZM149.551 82.4414V82.2803C149.551 81.8962 149.606 81.5413 149.717 81.2158C149.827 80.8903 149.985 80.6087 150.19 80.3711C150.399 80.1335 150.648 79.9495 150.938 79.8193C151.227 79.6859 151.549 79.6191 151.904 79.6191C152.262 79.6191 152.586 79.6859 152.876 79.8193C153.166 79.9495 153.415 80.1335 153.623 80.3711C153.831 80.6087 153.991 80.8903 154.102 81.2158C154.212 81.5413 154.268 81.8962 154.268 82.2803V82.4414C154.268 82.8255 154.212 83.1803 154.102 83.5059C153.991 83.8281 153.831 84.1081 153.623 84.3457C153.418 84.5833 153.171 84.7689 152.881 84.9023C152.591 85.0326 152.269 85.0977 151.914 85.0977C151.556 85.0977 151.232 85.0326 150.942 84.9023C150.653 84.7689 150.404 84.5833 150.195 84.3457C149.987 84.1081 149.827 83.8281 149.717 83.5059C149.606 83.1803 149.551 82.8255 149.551 82.4414ZM150.132 82.2803V82.4414C150.132 82.7311 150.171 83.0062 150.249 83.2666C150.327 83.5238 150.441 83.7533 150.591 83.9551C150.741 84.1536 150.926 84.3099 151.147 84.4238C151.369 84.5378 151.624 84.5947 151.914 84.5947C152.201 84.5947 152.453 84.5378 152.671 84.4238C152.892 84.3099 153.078 84.1536 153.228 83.9551C153.377 83.7533 153.49 83.5238 153.564 83.2666C153.643 83.0062 153.682 82.7311 153.682 82.4414V82.2803C153.682 81.9938 153.643 81.722 153.564 81.4648C153.49 81.2077 153.376 80.9782 153.223 80.7764C153.073 80.5745 152.887 80.415 152.666 80.2979C152.445 80.1807 152.191 80.1221 151.904 80.1221C151.618 80.1221 151.364 80.1807 151.143 80.2979C150.924 80.415 150.739 80.5745 150.586 80.7764C150.436 80.9782 150.322 81.2077 150.244 81.4648C150.169 81.722 150.132 81.9938 150.132 82.2803ZM155.469 77.5H156.055V83.9746L156.016 85H155.469V77.5ZM159.731 82.3096V82.4121C159.731 82.806 159.686 83.1673 159.595 83.4961C159.504 83.8249 159.372 84.1097 159.199 84.3506C159.027 84.5882 158.815 84.7721 158.564 84.9023C158.317 85.0326 158.032 85.0977 157.71 85.0977C157.394 85.0977 157.114 85.0488 156.87 84.9512C156.626 84.8503 156.418 84.7087 156.245 84.5264C156.073 84.3408 155.934 84.1243 155.83 83.877C155.726 83.6263 155.653 83.3512 155.61 83.0518V81.748C155.659 81.429 155.737 81.1393 155.845 80.8789C155.952 80.6185 156.09 80.3939 156.26 80.2051C156.432 80.0163 156.637 79.8714 156.875 79.7705C157.116 79.6696 157.391 79.6191 157.7 79.6191C158.022 79.6191 158.309 79.6826 158.56 79.8096C158.813 79.9333 159.027 80.1139 159.199 80.3516C159.372 80.5859 159.504 80.8691 159.595 81.2012C159.686 81.5299 159.731 81.8994 159.731 82.3096ZM159.141 82.4121V82.3096C159.141 82.0003 159.111 81.7139 159.053 81.4502C158.994 81.1865 158.901 80.957 158.774 80.7617C158.651 80.5632 158.491 80.4085 158.296 80.2979C158.101 80.1872 157.866 80.1318 157.593 80.1318C157.313 80.1318 157.074 80.179 156.875 80.2734C156.68 80.3646 156.517 80.4867 156.387 80.6396C156.26 80.7894 156.159 80.9538 156.084 81.1328C156.009 81.3118 155.954 81.4876 155.918 81.6602V83.1787C155.973 83.4229 156.069 83.6523 156.206 83.8672C156.343 84.082 156.527 84.2562 156.758 84.3896C156.989 84.5199 157.271 84.585 157.603 84.585C157.869 84.585 158.099 84.5296 158.291 84.4189C158.486 84.3083 158.646 84.1553 158.77 83.96C158.896 83.7646 158.989 83.5352 159.048 83.2715C159.11 83.0078 159.141 82.7214 159.141 82.4121ZM161.675 79.7168V85H161.094V79.7168H161.675ZM160.991 78.1885C160.991 78.0778 161.025 77.985 161.094 77.9102C161.165 77.832 161.263 77.793 161.387 77.793C161.51 77.793 161.608 77.832 161.68 77.9102C161.755 77.985 161.792 78.0778 161.792 78.1885C161.792 78.2959 161.755 78.3887 161.68 78.4668C161.608 78.5417 161.51 78.5791 161.387 78.5791C161.263 78.5791 161.165 78.5417 161.094 78.4668C161.025 78.3887 160.991 78.2959 160.991 78.1885ZM163.921 77.5V85H163.34V77.5H163.921ZM167.559 85.0977C167.214 85.0977 166.896 85.0342 166.606 84.9072C166.32 84.7803 166.069 84.6012 165.854 84.3701C165.643 84.139 165.479 83.8656 165.361 83.5498C165.247 83.2308 165.19 82.8825 165.19 82.5049V82.2949C165.19 81.888 165.251 81.5202 165.371 81.1914C165.492 80.8626 165.658 80.5811 165.869 80.3467C166.081 80.1123 166.322 79.9333 166.592 79.8096C166.865 79.6826 167.152 79.6191 167.451 79.6191C167.786 79.6191 168.084 79.6794 168.345 79.7998C168.605 79.917 168.823 80.0846 168.999 80.3027C169.178 80.5176 169.313 80.7731 169.404 81.0693C169.495 81.3623 169.541 81.6862 169.541 82.041V82.3975H165.542V81.8994H168.96V81.8311C168.953 81.5348 168.893 81.2581 168.779 81.001C168.669 80.7406 168.503 80.529 168.281 80.3662C168.06 80.2035 167.783 80.1221 167.451 80.1221C167.204 80.1221 166.976 80.1742 166.768 80.2783C166.562 80.3825 166.385 80.5322 166.235 80.7275C166.089 80.9196 165.975 81.1491 165.894 81.416C165.815 81.6797 165.776 81.9727 165.776 82.2949V82.5049C165.776 82.7979 165.819 83.0713 165.903 83.3252C165.991 83.5758 166.115 83.7972 166.274 83.9893C166.437 84.1813 166.629 84.3311 166.851 84.4385C167.072 84.5459 167.316 84.5996 167.583 84.5996C167.896 84.5996 168.172 84.5426 168.413 84.4287C168.654 84.3115 168.87 84.1276 169.062 83.877L169.429 84.1602C169.315 84.3294 169.172 84.4857 168.999 84.6289C168.83 84.7721 168.626 84.8861 168.389 84.9707C168.151 85.0553 167.874 85.0977 167.559 85.0977ZM174.6 83.7646L175.874 79.7168H176.284L176.04 80.8057L174.707 85H174.297L174.6 83.7646ZM173.276 79.7168L174.395 83.7891L174.634 85H174.209L172.676 79.7168H173.276ZM177.871 83.7744L178.96 79.7168H179.561L178.027 85H177.607L177.871 83.7744ZM176.367 79.7168L177.622 83.7305L177.939 85H177.529L176.167 80.8008L175.938 79.7168H176.367ZM183.896 84.0527V81.3281C183.896 81.0775 183.844 80.861 183.74 80.6787C183.636 80.4964 183.483 80.3564 183.281 80.2588C183.079 80.1611 182.83 80.1123 182.534 80.1123C182.261 80.1123 182.017 80.1611 181.802 80.2588C181.59 80.3532 181.423 80.4818 181.299 80.6445C181.178 80.804 181.118 80.9814 181.118 81.1768L180.532 81.1719C180.532 80.9733 180.581 80.7812 180.679 80.5957C180.776 80.4102 180.915 80.2441 181.094 80.0977C181.273 79.9512 181.486 79.8356 181.733 79.751C181.984 79.6631 182.259 79.6191 182.559 79.6191C182.936 79.6191 183.268 79.6826 183.555 79.8096C183.844 79.9365 184.071 80.127 184.233 80.3809C184.396 80.6348 184.478 80.9538 184.478 81.3379V83.8916C184.478 84.0739 184.491 84.2627 184.517 84.458C184.546 84.6533 184.587 84.8145 184.639 84.9414V85H184.019C183.979 84.8828 183.949 84.7363 183.926 84.5605C183.906 84.3815 183.896 84.2122 183.896 84.0527ZM184.033 81.9238L184.043 82.373H182.896C182.596 82.373 182.327 82.4007 182.09 82.4561C181.855 82.5081 181.657 82.5863 181.494 82.6904C181.331 82.7913 181.206 82.9134 181.118 83.0566C181.034 83.1999 180.991 83.3626 180.991 83.5449C180.991 83.7337 181.038 83.9062 181.133 84.0625C181.23 84.2188 181.367 84.3441 181.543 84.4385C181.722 84.5296 181.934 84.5752 182.178 84.5752C182.503 84.5752 182.79 84.515 183.037 84.3945C183.288 84.2741 183.494 84.1162 183.657 83.9209C183.82 83.7256 183.929 83.5124 183.984 83.2812L184.238 83.6182C184.196 83.7809 184.118 83.9486 184.004 84.1211C183.893 84.2904 183.748 84.4499 183.569 84.5996C183.39 84.7461 183.179 84.8665 182.935 84.9609C182.694 85.0521 182.42 85.0977 182.114 85.0977C181.769 85.0977 181.468 85.0326 181.211 84.9023C180.957 84.7721 180.758 84.5947 180.615 84.3701C180.475 84.1423 180.405 83.8851 180.405 83.5986C180.405 83.3382 180.461 83.1055 180.571 82.9004C180.682 82.6921 180.841 82.5163 181.05 82.373C181.261 82.2266 181.515 82.1159 181.812 82.041C182.111 81.9629 182.446 81.9238 182.817 81.9238H184.033ZM189.209 83.6523C189.209 83.5091 189.173 83.3675 189.102 83.2275C189.03 83.0876 188.892 82.959 188.687 82.8418C188.485 82.7246 188.187 82.6253 187.793 82.5439C187.5 82.4788 187.238 82.4056 187.007 82.3242C186.779 82.2428 186.587 82.1452 186.431 82.0312C186.274 81.9173 186.156 81.7806 186.074 81.6211C185.993 81.4616 185.952 81.2728 185.952 81.0547C185.952 80.8594 185.994 80.6755 186.079 80.5029C186.167 80.3271 186.291 80.1742 186.45 80.0439C186.613 79.9105 186.808 79.8063 187.036 79.7314C187.267 79.6566 187.526 79.6191 187.812 79.6191C188.219 79.6191 188.568 79.6891 188.857 79.8291C189.15 79.9658 189.373 80.153 189.526 80.3906C189.683 80.6283 189.761 80.8968 189.761 81.1963H189.18C189.18 81.014 189.126 80.8415 189.019 80.6787C188.914 80.516 188.76 80.3825 188.555 80.2783C188.353 80.1742 188.105 80.1221 187.812 80.1221C187.51 80.1221 187.264 80.1676 187.075 80.2588C186.886 80.3499 186.748 80.4655 186.66 80.6055C186.576 80.7454 186.533 80.8903 186.533 81.04C186.533 81.1572 186.551 81.2646 186.587 81.3623C186.626 81.4567 186.694 81.5446 186.792 81.626C186.893 81.7074 187.036 81.7839 187.222 81.8555C187.407 81.9271 187.648 81.9971 187.944 82.0654C188.371 82.1598 188.719 82.2754 188.989 82.4121C189.263 82.5456 189.465 82.7116 189.595 82.9102C189.725 83.1055 189.79 83.3431 189.79 83.623C189.79 83.8411 189.744 84.0413 189.653 84.2236C189.562 84.4027 189.43 84.5573 189.258 84.6875C189.089 84.8177 188.883 84.9186 188.643 84.9902C188.405 85.0618 188.138 85.0977 187.842 85.0977C187.396 85.0977 187.018 85.0244 186.709 84.8779C186.403 84.7282 186.17 84.5329 186.011 84.292C185.854 84.0479 185.776 83.7891 185.776 83.5156H186.357C186.377 83.7891 186.463 84.0055 186.616 84.165C186.769 84.3213 186.956 84.432 187.178 84.4971C187.402 84.5622 187.624 84.5947 187.842 84.5947C188.141 84.5947 188.392 84.5508 188.594 84.4629C188.796 84.375 188.949 84.2594 189.053 84.1162C189.157 83.973 189.209 83.8184 189.209 83.6523ZM193.11 79.7168V80.1953H190.464V79.7168H193.11ZM191.436 78.3594H192.017V83.7158C192.017 83.96 192.049 84.1439 192.114 84.2676C192.179 84.3913 192.264 84.4743 192.368 84.5166C192.472 84.5589 192.585 84.5801 192.705 84.5801C192.793 84.5801 192.878 84.5752 192.959 84.5654C193.04 84.5524 193.114 84.5394 193.179 84.5264L193.203 85.0195C193.132 85.0423 193.039 85.0602 192.925 85.0732C192.811 85.0895 192.697 85.0977 192.583 85.0977C192.358 85.0977 192.16 85.057 191.987 84.9756C191.815 84.891 191.68 84.7477 191.582 84.5459C191.484 84.3408 191.436 84.0625 191.436 83.7109V78.3594ZM196.377 85.0977C196.032 85.0977 195.715 85.0342 195.425 84.9072C195.138 84.7803 194.888 84.6012 194.673 84.3701C194.461 84.139 194.297 83.8656 194.18 83.5498C194.066 83.2308 194.009 82.8825 194.009 82.5049V82.2949C194.009 81.888 194.069 81.5202 194.189 81.1914C194.31 80.8626 194.476 80.5811 194.688 80.3467C194.899 80.1123 195.14 79.9333 195.41 79.8096C195.684 79.6826 195.97 79.6191 196.27 79.6191C196.605 79.6191 196.903 79.6794 197.163 79.7998C197.424 79.917 197.642 80.0846 197.817 80.3027C197.996 80.5176 198.132 80.7731 198.223 81.0693C198.314 81.3623 198.359 81.6862 198.359 82.041V82.3975H194.36V81.8994H197.778V81.8311C197.772 81.5348 197.712 81.2581 197.598 81.001C197.487 80.7406 197.321 80.529 197.1 80.3662C196.878 80.2035 196.602 80.1221 196.27 80.1221C196.022 80.1221 195.794 80.1742 195.586 80.2783C195.381 80.3825 195.203 80.5322 195.054 80.7275C194.907 80.9196 194.793 81.1491 194.712 81.416C194.634 81.6797 194.595 81.9727 194.595 82.2949V82.5049C194.595 82.7979 194.637 83.0713 194.722 83.3252C194.81 83.5758 194.933 83.7972 195.093 83.9893C195.256 84.1813 195.448 84.3311 195.669 84.4385C195.89 84.5459 196.134 84.5996 196.401 84.5996C196.714 84.5996 196.991 84.5426 197.231 84.4287C197.472 84.3115 197.689 84.1276 197.881 83.877L198.247 84.1602C198.133 84.3294 197.99 84.4857 197.817 84.6289C197.648 84.7721 197.445 84.8861 197.207 84.9707C196.969 85.0553 196.693 85.0977 196.377 85.0977ZM202.505 80.8105V85H201.919V79.7168H202.48L202.505 80.8105ZM202.397 82.0312L202.114 81.8848C202.134 81.5723 202.192 81.2793 202.29 81.0059C202.391 80.7324 202.531 80.4915 202.71 80.2832C202.889 80.0749 203.104 79.9121 203.354 79.7949C203.605 79.6777 203.89 79.6191 204.209 79.6191C204.466 79.6191 204.699 79.6549 204.907 79.7266C205.119 79.7949 205.298 79.904 205.444 80.0537C205.594 80.2002 205.71 80.3923 205.791 80.6299C205.872 80.8675 205.913 81.1523 205.913 81.4844V85H205.332V81.5039C205.332 81.1523 205.277 80.8773 205.166 80.6787C205.059 80.4801 204.907 80.3385 204.712 80.2539C204.52 80.1693 204.297 80.127 204.043 80.127C203.743 80.127 203.49 80.1888 203.281 80.3125C203.076 80.4329 202.909 80.5908 202.778 80.7861C202.651 80.9782 202.557 81.1849 202.495 81.4062C202.433 81.6243 202.401 81.8327 202.397 82.0312ZM205.908 81.5723L205.518 81.582C205.534 81.3249 205.592 81.0791 205.693 80.8447C205.798 80.6104 205.939 80.402 206.118 80.2197C206.297 80.0342 206.51 79.8877 206.758 79.7803C207.008 79.6729 207.29 79.6191 207.603 79.6191C207.876 79.6191 208.12 79.6566 208.335 79.7314C208.55 79.8031 208.73 79.9186 208.877 80.0781C209.027 80.2344 209.141 80.4346 209.219 80.6787C209.297 80.9229 209.336 81.2158 209.336 81.5576V85H208.75V81.5527C208.75 81.1784 208.695 80.8887 208.584 80.6836C208.477 80.4753 208.327 80.3304 208.135 80.249C207.943 80.1676 207.718 80.127 207.461 80.127C207.207 80.1302 206.984 80.1774 206.792 80.2686C206.6 80.3564 206.439 80.4736 206.309 80.6201C206.182 80.7633 206.084 80.918 206.016 81.084C205.951 81.25 205.915 81.4128 205.908 81.5723ZM214.033 84.0527V81.3281C214.033 81.0775 213.981 80.861 213.877 80.6787C213.773 80.4964 213.62 80.3564 213.418 80.2588C213.216 80.1611 212.967 80.1123 212.671 80.1123C212.397 80.1123 212.153 80.1611 211.938 80.2588C211.727 80.3532 211.559 80.4818 211.436 80.6445C211.315 80.804 211.255 80.9814 211.255 81.1768L210.669 81.1719C210.669 80.9733 210.718 80.7812 210.815 80.5957C210.913 80.4102 211.051 80.2441 211.23 80.0977C211.41 79.9512 211.623 79.8356 211.87 79.751C212.121 79.6631 212.396 79.6191 212.695 79.6191C213.073 79.6191 213.405 79.6826 213.691 79.8096C213.981 79.9365 214.207 80.127 214.37 80.3809C214.533 80.6348 214.614 80.9538 214.614 81.3379V83.8916C214.614 84.0739 214.627 84.2627 214.653 84.458C214.683 84.6533 214.723 84.8145 214.775 84.9414V85H214.155C214.116 84.8828 214.085 84.7363 214.062 84.5605C214.043 84.3815 214.033 84.2122 214.033 84.0527ZM214.17 81.9238L214.18 82.373H213.032C212.733 82.373 212.464 82.4007 212.227 82.4561C211.992 82.5081 211.794 82.5863 211.631 82.6904C211.468 82.7913 211.343 82.9134 211.255 83.0566C211.17 83.1999 211.128 83.3626 211.128 83.5449C211.128 83.7337 211.175 83.9062 211.27 84.0625C211.367 84.2188 211.504 84.3441 211.68 84.4385C211.859 84.5296 212.07 84.5752 212.314 84.5752C212.64 84.5752 212.926 84.515 213.174 84.3945C213.424 84.2741 213.631 84.1162 213.794 83.9209C213.957 83.7256 214.066 83.5124 214.121 83.2812L214.375 83.6182C214.333 83.7809 214.255 83.9486 214.141 84.1211C214.03 84.2904 213.885 84.4499 213.706 84.5996C213.527 84.7461 213.315 84.8665 213.071 84.9609C212.83 85.0521 212.557 85.0977 212.251 85.0977C211.906 85.0977 211.605 85.0326 211.348 84.9023C211.094 84.7721 210.895 84.5947 210.752 84.3701C210.612 84.1423 210.542 83.8851 210.542 83.5986C210.542 83.3382 210.597 83.1055 210.708 82.9004C210.819 82.6921 210.978 82.5163 211.187 82.373C211.398 82.2266 211.652 82.1159 211.948 82.041C212.248 81.9629 212.583 81.9238 212.954 81.9238H214.17ZM216.763 80.8447V85H216.182V79.7168H216.738L216.763 80.8447ZM216.631 82.0312L216.372 81.8848C216.392 81.5723 216.455 81.2793 216.562 81.0059C216.67 80.7324 216.815 80.4915 216.997 80.2832C217.183 80.0749 217.399 79.9121 217.646 79.7949C217.897 79.6777 218.174 79.6191 218.477 79.6191C218.74 79.6191 218.976 79.6549 219.185 79.7266C219.393 79.7982 219.57 79.9121 219.717 80.0684C219.863 80.2246 219.974 80.4248 220.049 80.6689C220.127 80.9131 220.166 81.2109 220.166 81.5625V85H219.58V81.5576C219.58 81.193 219.53 80.9082 219.429 80.7031C219.328 80.4948 219.185 80.3467 218.999 80.2588C218.813 80.1709 218.594 80.127 218.34 80.127C218.06 80.127 217.814 80.1888 217.603 80.3125C217.394 80.4329 217.218 80.5908 217.075 80.7861C216.935 80.9782 216.828 81.1849 216.753 81.4062C216.678 81.6243 216.637 81.8327 216.631 82.0312ZM224.893 84.0527V81.3281C224.893 81.0775 224.84 80.861 224.736 80.6787C224.632 80.4964 224.479 80.3564 224.277 80.2588C224.076 80.1611 223.826 80.1123 223.53 80.1123C223.257 80.1123 223.013 80.1611 222.798 80.2588C222.586 80.3532 222.419 80.4818 222.295 80.6445C222.174 80.804 222.114 80.9814 222.114 81.1768L221.528 81.1719C221.528 80.9733 221.577 80.7812 221.675 80.5957C221.772 80.4102 221.911 80.2441 222.09 80.0977C222.269 79.9512 222.482 79.8356 222.729 79.751C222.98 79.6631 223.255 79.6191 223.555 79.6191C223.932 79.6191 224.264 79.6826 224.551 79.8096C224.84 79.9365 225.067 80.127 225.229 80.3809C225.392 80.6348 225.474 80.9538 225.474 81.3379V83.8916C225.474 84.0739 225.487 84.2627 225.513 84.458C225.542 84.6533 225.583 84.8145 225.635 84.9414V85H225.015C224.976 84.8828 224.945 84.7363 224.922 84.5605C224.902 84.3815 224.893 84.2122 224.893 84.0527ZM225.029 81.9238L225.039 82.373H223.892C223.592 82.373 223.324 82.4007 223.086 82.4561C222.852 82.5081 222.653 82.5863 222.49 82.6904C222.327 82.7913 222.202 82.9134 222.114 83.0566C222.03 83.1999 221.987 83.3626 221.987 83.5449C221.987 83.7337 222.035 83.9062 222.129 84.0625C222.227 84.2188 222.363 84.3441 222.539 84.4385C222.718 84.5296 222.93 84.5752 223.174 84.5752C223.499 84.5752 223.786 84.515 224.033 84.3945C224.284 84.2741 224.491 84.1162 224.653 83.9209C224.816 83.7256 224.925 83.5124 224.98 83.2812L225.234 83.6182C225.192 83.7809 225.114 83.9486 225 84.1211C224.889 84.2904 224.744 84.4499 224.565 84.5996C224.386 84.7461 224.175 84.8665 223.931 84.9609C223.69 85.0521 223.416 85.0977 223.11 85.0977C222.765 85.0977 222.464 85.0326 222.207 84.9023C221.953 84.7721 221.755 84.5947 221.611 84.3701C221.471 84.1423 221.401 83.8851 221.401 83.5986C221.401 83.3382 221.457 83.1055 221.567 82.9004C221.678 82.6921 221.838 82.5163 222.046 82.373C222.257 82.2266 222.511 82.1159 222.808 82.041C223.107 81.9629 223.442 81.9238 223.813 81.9238H225.029ZM230.518 79.7168H231.06V84.9072C231.06 85.3662 230.972 85.7601 230.796 86.0889C230.623 86.4176 230.378 86.6699 230.059 86.8457C229.743 87.0215 229.37 87.1094 228.94 87.1094C228.722 87.1094 228.498 87.0752 228.267 87.0068C228.039 86.9417 227.822 86.8408 227.617 86.7041C227.415 86.5706 227.243 86.4046 227.1 86.2061L227.427 85.8496C227.642 86.11 227.871 86.3005 228.115 86.4209C228.359 86.5446 228.623 86.6064 228.906 86.6064C229.242 86.6064 229.525 86.5397 229.756 86.4062C229.99 86.2728 230.168 86.0807 230.288 85.8301C230.412 85.5794 230.474 85.2783 230.474 84.9268V80.8789L230.518 79.7168ZM226.807 82.4121V82.3096C226.807 81.8994 226.852 81.5299 226.943 81.2012C227.038 80.8691 227.173 80.5859 227.349 80.3516C227.524 80.1139 227.738 79.9333 227.988 79.8096C228.242 79.6826 228.529 79.6191 228.848 79.6191C229.154 79.6191 229.425 79.6696 229.663 79.7705C229.901 79.8714 230.106 80.0163 230.278 80.2051C230.451 80.3939 230.589 80.6185 230.693 80.8789C230.801 81.1393 230.879 81.429 230.928 81.748V83.0518C230.889 83.3512 230.817 83.6263 230.713 83.877C230.609 84.1243 230.47 84.3408 230.298 84.5264C230.125 84.7087 229.917 84.8503 229.673 84.9512C229.432 85.0488 229.154 85.0977 228.838 85.0977C228.522 85.0977 228.239 85.0326 227.988 84.9023C227.738 84.7721 227.524 84.5882 227.349 84.3506C227.173 84.1097 227.038 83.8249 226.943 83.4961C226.852 83.1673 226.807 82.806 226.807 82.4121ZM227.393 82.3096V82.4121C227.393 82.7214 227.424 83.0078 227.485 83.2715C227.547 83.5352 227.642 83.7646 227.769 83.96C227.896 84.1553 228.057 84.3083 228.252 84.4189C228.447 84.5296 228.677 84.585 228.94 84.585C229.276 84.585 229.557 84.5215 229.785 84.3945C230.013 84.2643 230.194 84.0934 230.327 83.8818C230.461 83.667 230.558 83.4326 230.62 83.1787V81.6602C230.584 81.4876 230.529 81.3118 230.454 81.1328C230.382 80.9538 230.282 80.7894 230.151 80.6396C230.024 80.4867 229.862 80.3646 229.663 80.2734C229.468 80.179 229.23 80.1318 228.95 80.1318C228.683 80.1318 228.451 80.1872 228.252 80.2979C228.057 80.4085 227.896 80.5632 227.769 80.7617C227.642 80.957 227.547 81.1865 227.485 81.4502C227.424 81.7139 227.393 82.0003 227.393 82.3096ZM234.629 85.0977C234.284 85.0977 233.966 85.0342 233.677 84.9072C233.39 84.7803 233.14 84.6012 232.925 84.3701C232.713 84.139 232.549 83.8656 232.432 83.5498C232.318 83.2308 232.261 82.8825 232.261 82.5049V82.2949C232.261 81.888 232.321 81.5202 232.441 81.1914C232.562 80.8626 232.728 80.5811 232.939 80.3467C233.151 80.1123 233.392 79.9333 233.662 79.8096C233.936 79.6826 234.222 79.6191 234.521 79.6191C234.857 79.6191 235.155 79.6794 235.415 79.7998C235.675 79.917 235.894 80.0846 236.069 80.3027C236.248 80.5176 236.383 80.7731 236.475 81.0693C236.566 81.3623 236.611 81.6862 236.611 82.041V82.3975H232.612V81.8994H236.03V81.8311C236.024 81.5348 235.964 81.2581 235.85 81.001C235.739 80.7406 235.573 80.529 235.352 80.3662C235.13 80.2035 234.854 80.1221 234.521 80.1221C234.274 80.1221 234.046 80.1742 233.838 80.2783C233.633 80.3825 233.455 80.5322 233.306 80.7275C233.159 80.9196 233.045 81.1491 232.964 81.416C232.886 81.6797 232.847 81.9727 232.847 82.2949V82.5049C232.847 82.7979 232.889 83.0713 232.974 83.3252C233.062 83.5758 233.185 83.7972 233.345 83.9893C233.507 84.1813 233.7 84.3311 233.921 84.4385C234.142 84.5459 234.386 84.5996 234.653 84.5996C234.966 84.5996 235.243 84.5426 235.483 84.4287C235.724 84.3115 235.941 84.1276 236.133 83.877L236.499 84.1602C236.385 84.3294 236.242 84.4857 236.069 84.6289C235.9 84.7721 235.697 84.8861 235.459 84.9707C235.221 85.0553 234.945 85.0977 234.629 85.0977ZM238.315 80.8105V85H237.729V79.7168H238.291L238.315 80.8105ZM238.208 82.0312L237.925 81.8848C237.944 81.5723 238.003 81.2793 238.101 81.0059C238.201 80.7324 238.341 80.4915 238.521 80.2832C238.7 80.0749 238.914 79.9121 239.165 79.7949C239.416 79.6777 239.701 79.6191 240.02 79.6191C240.277 79.6191 240.509 79.6549 240.718 79.7266C240.929 79.7949 241.108 79.904 241.255 80.0537C241.405 80.2002 241.52 80.3923 241.602 80.6299C241.683 80.8675 241.724 81.1523 241.724 81.4844V85H241.143V81.5039C241.143 81.1523 241.087 80.8773 240.977 80.6787C240.869 80.4801 240.718 80.3385 240.522 80.2539C240.33 80.1693 240.107 80.127 239.854 80.127C239.554 80.127 239.3 80.1888 239.092 80.3125C238.887 80.4329 238.719 80.5908 238.589 80.7861C238.462 80.9782 238.368 81.1849 238.306 81.4062C238.244 81.6243 238.211 81.8327 238.208 82.0312ZM241.719 81.5723L241.328 81.582C241.344 81.3249 241.403 81.0791 241.504 80.8447C241.608 80.6104 241.75 80.402 241.929 80.2197C242.108 80.0342 242.321 79.8877 242.568 79.7803C242.819 79.6729 243.101 79.6191 243.413 79.6191C243.687 79.6191 243.931 79.6566 244.146 79.7314C244.36 79.8031 244.541 79.9186 244.688 80.0781C244.837 80.2344 244.951 80.4346 245.029 80.6787C245.107 80.9229 245.146 81.2158 245.146 81.5576V85H244.561V81.5527C244.561 81.1784 244.505 80.8887 244.395 80.6836C244.287 80.4753 244.137 80.3304 243.945 80.249C243.753 80.1676 243.529 80.127 243.271 80.127C243.018 80.1302 242.795 80.1774 242.603 80.2686C242.41 80.3564 242.249 80.4736 242.119 80.6201C241.992 80.7633 241.895 80.918 241.826 81.084C241.761 81.25 241.725 81.4128 241.719 81.5723ZM248.672 85.0977C248.327 85.0977 248.009 85.0342 247.72 84.9072C247.433 84.7803 247.183 84.6012 246.968 84.3701C246.756 84.139 246.592 83.8656 246.475 83.5498C246.361 83.2308 246.304 82.8825 246.304 82.5049V82.2949C246.304 81.888 246.364 81.5202 246.484 81.1914C246.605 80.8626 246.771 80.5811 246.982 80.3467C247.194 80.1123 247.435 79.9333 247.705 79.8096C247.979 79.6826 248.265 79.6191 248.564 79.6191C248.9 79.6191 249.198 79.6794 249.458 79.7998C249.718 79.917 249.937 80.0846 250.112 80.3027C250.291 80.5176 250.426 80.7731 250.518 81.0693C250.609 81.3623 250.654 81.6862 250.654 82.041V82.3975H246.655V81.8994H250.073V81.8311C250.067 81.5348 250.007 81.2581 249.893 81.001C249.782 80.7406 249.616 80.529 249.395 80.3662C249.173 80.2035 248.896 80.1221 248.564 80.1221C248.317 80.1221 248.089 80.1742 247.881 80.2783C247.676 80.3825 247.498 80.5322 247.349 80.7275C247.202 80.9196 247.088 81.1491 247.007 81.416C246.929 81.6797 246.89 81.9727 246.89 82.2949V82.5049C246.89 82.7979 246.932 83.0713 247.017 83.3252C247.104 83.5758 247.228 83.7972 247.388 83.9893C247.55 84.1813 247.743 84.3311 247.964 84.4385C248.185 84.5459 248.429 84.5996 248.696 84.5996C249.009 84.5996 249.285 84.5426 249.526 84.4287C249.767 84.3115 249.984 84.1276 250.176 83.877L250.542 84.1602C250.428 84.3294 250.285 84.4857 250.112 84.6289C249.943 84.7721 249.74 84.8861 249.502 84.9707C249.264 85.0553 248.988 85.0977 248.672 85.0977ZM252.388 80.8447V85H251.807V79.7168H252.363L252.388 80.8447ZM252.256 82.0312L251.997 81.8848C252.017 81.5723 252.08 81.2793 252.188 81.0059C252.295 80.7324 252.44 80.4915 252.622 80.2832C252.808 80.0749 253.024 79.9121 253.271 79.7949C253.522 79.6777 253.799 79.6191 254.102 79.6191C254.365 79.6191 254.601 79.6549 254.81 79.7266C255.018 79.7982 255.195 79.9121 255.342 80.0684C255.488 80.2246 255.599 80.4248 255.674 80.6689C255.752 80.9131 255.791 81.2109 255.791 81.5625V85H255.205V81.5576C255.205 81.193 255.155 80.9082 255.054 80.7031C254.953 80.4948 254.81 80.3467 254.624 80.2588C254.438 80.1709 254.219 80.127 253.965 80.127C253.685 80.127 253.439 80.1888 253.228 80.3125C253.019 80.4329 252.843 80.5908 252.7 80.7861C252.56 80.9782 252.453 81.1849 252.378 81.4062C252.303 81.6243 252.262 81.8327 252.256 82.0312ZM259.302 79.7168V80.1953H256.655V79.7168H259.302ZM257.627 78.3594H258.208V83.7158C258.208 83.96 258.241 84.1439 258.306 84.2676C258.371 84.3913 258.455 84.4743 258.56 84.5166C258.664 84.5589 258.776 84.5801 258.896 84.5801C258.984 84.5801 259.069 84.5752 259.15 84.5654C259.232 84.5524 259.305 84.5394 259.37 84.5264L259.395 85.0195C259.323 85.0423 259.23 85.0602 259.116 85.0732C259.002 85.0895 258.888 85.0977 258.774 85.0977C258.55 85.0977 258.351 85.057 258.179 84.9756C258.006 84.891 257.871 84.7477 257.773 84.5459C257.676 84.3408 257.627 84.0625 257.627 83.7109V78.3594ZM265.439 78.3154L262.979 85H262.354L265.039 77.8906H265.474L265.439 78.3154ZM267.676 85L265.21 78.3154L265.176 77.8906H265.61L268.301 85H267.676ZM267.236 82.4902V83.0078H263.462V82.4902H267.236ZM269.795 80.7324V87.0312H269.209V79.7168H269.756L269.795 80.7324ZM273.467 82.3096V82.4121C273.467 82.806 273.421 83.1673 273.33 83.4961C273.239 83.8249 273.107 84.1097 272.935 84.3506C272.765 84.5882 272.555 84.7721 272.305 84.9023C272.054 85.0326 271.769 85.0977 271.45 85.0977C271.134 85.0977 270.853 85.0488 270.605 84.9512C270.358 84.8535 270.145 84.7152 269.966 84.5361C269.79 84.3538 269.648 84.1423 269.541 83.9014C269.437 83.6572 269.364 83.3903 269.321 83.1006V81.748C269.37 81.429 269.45 81.1393 269.561 80.8789C269.671 80.6185 269.813 80.3939 269.985 80.2051C270.161 80.0163 270.369 79.8714 270.61 79.7705C270.851 79.6696 271.126 79.6191 271.436 79.6191C271.758 79.6191 272.044 79.6826 272.295 79.8096C272.549 79.9333 272.762 80.1139 272.935 80.3516C273.11 80.5859 273.242 80.8691 273.33 81.2012C273.421 81.5299 273.467 81.8994 273.467 82.3096ZM272.881 82.4121V82.3096C272.881 82.0003 272.848 81.7139 272.783 81.4502C272.721 81.1865 272.625 80.957 272.495 80.7617C272.368 80.5632 272.205 80.4085 272.007 80.2979C271.812 80.1872 271.579 80.1318 271.309 80.1318C271.029 80.1318 270.789 80.179 270.591 80.2734C270.396 80.3646 270.233 80.4867 270.103 80.6396C269.972 80.7894 269.87 80.9538 269.795 81.1328C269.72 81.3118 269.665 81.4876 269.629 81.6602V83.2178C269.691 83.4652 269.79 83.6947 269.927 83.9062C270.063 84.1146 270.246 84.2822 270.474 84.4092C270.705 84.5329 270.986 84.5947 271.318 84.5947C271.585 84.5947 271.816 84.5394 272.012 84.4287C272.207 84.318 272.368 84.1634 272.495 83.9648C272.625 83.7663 272.721 83.5352 272.783 83.2715C272.848 83.0078 272.881 82.7214 272.881 82.4121ZM275.342 80.7324V87.0312H274.756V79.7168H275.303L275.342 80.7324ZM279.014 82.3096V82.4121C279.014 82.806 278.968 83.1673 278.877 83.4961C278.786 83.8249 278.654 84.1097 278.481 84.3506C278.312 84.5882 278.102 84.7721 277.852 84.9023C277.601 85.0326 277.316 85.0977 276.997 85.0977C276.681 85.0977 276.4 85.0488 276.152 84.9512C275.905 84.8535 275.692 84.7152 275.513 84.5361C275.337 84.3538 275.195 84.1423 275.088 83.9014C274.984 83.6572 274.91 83.3903 274.868 83.1006V81.748C274.917 81.429 274.997 81.1393 275.107 80.8789C275.218 80.6185 275.36 80.3939 275.532 80.2051C275.708 80.0163 275.916 79.8714 276.157 79.7705C276.398 79.6696 276.673 79.6191 276.982 79.6191C277.305 79.6191 277.591 79.6826 277.842 79.8096C278.096 79.9333 278.309 80.1139 278.481 80.3516C278.657 80.5859 278.789 80.8691 278.877 81.2012C278.968 81.5299 279.014 81.8994 279.014 82.3096ZM278.428 82.4121V82.3096C278.428 82.0003 278.395 81.7139 278.33 81.4502C278.268 81.1865 278.172 80.957 278.042 80.7617C277.915 80.5632 277.752 80.4085 277.554 80.2979C277.358 80.1872 277.126 80.1318 276.855 80.1318C276.576 80.1318 276.336 80.179 276.138 80.2734C275.942 80.3646 275.78 80.4867 275.649 80.6396C275.519 80.7894 275.417 80.9538 275.342 81.1328C275.267 81.3118 275.212 81.4876 275.176 81.6602V83.2178C275.238 83.4652 275.337 83.6947 275.474 83.9062C275.61 84.1146 275.793 84.2822 276.021 84.4092C276.252 84.5329 276.533 84.5947 276.865 84.5947C277.132 84.5947 277.363 84.5394 277.559 84.4287C277.754 84.318 277.915 84.1634 278.042 83.9648C278.172 83.7663 278.268 83.5352 278.33 83.2715C278.395 83.0078 278.428 82.7214 278.428 82.4121Z" fill="white"/>
<ellipse cx="130.5" cy="140.5" rx="130.5" ry="140.5" transform="matrix(-1 0 0 1 493 696)" fill="url(#paint0_linear_499_1167)" fill-opacity="0.5"/>
<ellipse cx="171" cy="165" rx="171" ry="165" transform="matrix(-1 0 0 1 208 596)" fill="url(#paint1_linear_499_1167)" fill-opacity="0.5"/>
<circle cx="8.5" cy="198.5" r="8.5" fill="#70FF87"/>
<ellipse cx="17.5" cy="238" rx="7.5" ry="7" fill="#70FF87"/>
<circle cx="16.5" cy="145.5" r="8.5" fill="white"/>
<circle cx="7.5" cy="106.5" r="15.5" fill="#70FF87"/>
<circle cx="44.5" cy="176.5" r="8.5" fill="#70FF87"/>
<circle cx="37" cy="213" r="6" fill="white"/>
<circle cx="8.5" cy="8.5" r="8.5" transform="matrix(-1 0 0 1 413 190)" fill="#70FF87"/>
<ellipse cx="7.5" cy="7" rx="7.5" ry="7" transform="matrix(-1 0 0 1 403 231)" fill="#70FF87"/>
<circle cx="8.5" cy="8.5" r="8.5" transform="matrix(-1 0 0 1 405 137)" fill="white"/>
<circle cx="15.5" cy="15.5" r="15.5" transform="matrix(-1 0 0 1 421 91)" fill="#70FF87"/>
<circle cx="8.5" cy="8.5" r="8.5" transform="matrix(-1 0 0 1 377 168)" fill="#70FF87"/>
<circle cx="6" cy="6" r="6" transform="matrix(-1 0 0 1 382 207)" fill="white"/>
<ellipse cx="4.6375" cy="4.66667" rx="4.6375" ry="4.66667" transform="matrix(-1 0 0 1 76 655)" fill="#70FF87"/>
<ellipse cx="3.975" cy="4" rx="3.975" ry="4" transform="matrix(-1 0 0 1 60.0999 674.333)" fill="#70FF87"/>
<ellipse cx="8.6125" cy="8.66667" rx="8.6125" ry="8.66667" transform="matrix(-1 0 0 1 40.2249 687.667)" fill="white"/>
<ellipse cx="5.9625" cy="5.66667" rx="5.9625" ry="5.66667" transform="matrix(-1 0 0 1 55.4626 655)" fill="white"/>
<ellipse cx="3.3125" cy="3.33333" rx="3.3125" ry="3.33333" transform="matrix(-1 0 0 1 39.5625 671.667)" fill="#70FF87"/>
<ellipse cx="335.638" cy="662.667" rx="4.6375" ry="4.66667" fill="#70FF87"/>
<ellipse cx="350.875" cy="681.333" rx="3.975" ry="4" fill="#70FF87"/>
<ellipse cx="375.387" cy="699.333" rx="8.6125" ry="8.66667" fill="white"/>
<ellipse cx="357.5" cy="663.667" rx="5.9625" ry="5.66667" fill="white"/>
<ellipse cx="370.75" cy="678" rx="3.3125" ry="3.33333" fill="#70FF87"/>
</g>
<defs>
<linearGradient id="paint0_linear_499_1167" x1="184.079" y1="12" x2="147.09" y2="173.505" gradientUnits="userSpaceOnUse">
<stop stop-color="white"/>
<stop offset="1" stop-color="white" stop-opacity="0"/>
</linearGradient>
<linearGradient id="paint1_linear_499_1167" x1="39.3451" y1="13.9831" x2="131.443" y2="161.046" gradientUnits="userSpaceOnUse">
<stop stop-color="#70FF87"/>
<stop offset="1" stop-color="#70FF87" stop-opacity="0"/>
</linearGradient>
<clipPath id="clip0_499_1167">
<rect width="414" height="896" rx="40" fill="white"/>
</clipPath>
</defs>
</svg>
